<svg xmlns="http://www.w3.org/2000/svg" width="32" height="32" viewBox="0 0 32 32" fill="none">
  <mask id="mask0_2642_4412" style="mask-type:alpha" maskUnits="userSpaceOnUse" x="0" y="0" width="32" height="32">
    <rect width="32" height="32" fill="#D9D9D9"/>
  </mask>
  <g mask="url(#mask0_2642_4412)">
    <path d="M6.66667 29.3333C5.93333 29.3333 5.30533 29.0724 4.78267 28.5506C4.26089 28.028 4 27.4 4 26.6666V7.99996C4 7.26663 4.26089 6.63907 4.78267 6.11729C5.30533 5.59463 5.93333 5.33329 6.66667 5.33329H8V2.66663H10.6667V5.33329H21.3333V2.66663H24V5.33329H25.3333C26.0667 5.33329 26.6947 5.59463 27.2173 6.11729C27.7391 6.63907 28 7.26663 28 7.99996V26.6666C28 27.4 27.7391 28.028 27.2173 28.5506C26.6947 29.0724 26.0667 29.3333 25.3333 29.3333H6.66667ZM6.66667 26.6666H25.3333V13.3333H6.66667V26.6666ZM6.66667 10.6666H25.3333V7.99996H6.66667V10.6666ZM16 18.6666C15.6222 18.6666 15.3058 18.5386 15.0507 18.2826C14.7947 18.0275 14.6667 17.7111 14.6667 17.3333C14.6667 16.9555 14.7947 16.6386 15.0507 16.3826C15.3058 16.1275 15.6222 16 16 16C16.3778 16 16.6947 16.1275 16.9507 16.3826C17.2058 16.6386 17.3333 16.9555 17.3333 17.3333C17.3333 17.7111 17.2058 18.0275 16.9507 18.2826C16.6947 18.5386 16.3778 18.6666 16 18.6666ZM10.6667 18.6666C10.2889 18.6666 9.972 18.5386 9.716 18.2826C9.46089 18.0275 9.33333 17.7111 9.33333 17.3333C9.33333 16.9555 9.46089 16.6386 9.716 16.3826C9.972 16.1275 10.2889 16 10.6667 16C11.0444 16 11.3613 16.1275 11.6173 16.3826C11.8724 16.6386 12 16.9555 12 17.3333C12 17.7111 11.8724 18.0275 11.6173 18.2826C11.3613 18.5386 11.0444 18.6666 10.6667 18.6666ZM21.3333 18.6666C20.9556 18.6666 20.6391 18.5386 20.384 18.2826C20.128 18.0275 20 17.7111 20 17.3333C20 16.9555 20.128 16.6386 20.384 16.3826C20.6391 16.1275 20.9556 16 21.3333 16C21.7111 16 22.0276 16.1275 22.2827 16.3826C22.5387 16.6386 22.6667 16.9555 22.6667 17.3333C22.6667 17.7111 22.5387 18.0275 22.2827 18.2826C22.0276 18.5386 21.7111 18.6666 21.3333 18.6666ZM16 24C15.6222 24 15.3058 23.872 15.0507 23.616C14.7947 23.3608 14.6667 23.0444 14.6667 22.6666C14.6667 22.2888 14.7947 21.9724 15.0507 21.7173C15.3058 21.4613 15.6222 21.3333 16 21.3333C16.3778 21.3333 16.6947 21.4613 16.9507 21.7173C17.2058 21.9724 17.3333 22.2888 17.3333 22.6666C17.3333 23.0444 17.2058 23.3608 16.9507 23.616C16.6947 23.872 16.3778 24 16 24ZM10.6667 24C10.2889 24 9.972 23.872 9.716 23.616C9.46089 23.3608 9.33333 23.0444 9.33333 22.6666C9.33333 22.2888 9.46089 21.9724 9.716 21.7173C9.972 21.4613 10.2889 21.3333 10.6667 21.3333C11.0444 21.3333 11.3613 21.4613 11.6173 21.7173C11.8724 21.9724 12 22.2888 12 22.6666C12 23.0444 11.8724 23.3608 11.6173 23.616C11.3613 23.872 11.0444 24 10.6667 24ZM21.3333 24C20.9556 24 20.6391 23.872 20.384 23.616C20.128 23.3608 20 23.0444 20 22.6666C20 22.2888 20.128 21.9724 20.384 21.7173C20.6391 21.4613 20.9556 21.3333 21.3333 21.3333C21.7111 21.3333 22.0276 21.4613 22.2827 21.7173C22.5387 21.9724 22.6667 22.2888 22.6667 22.6666C22.6667 23.0444 22.5387 23.3608 22.2827 23.616C22.0276 23.872 21.7111 24 21.3333 24Z" fill="#E086D3"/>
  </g>
</svg>