<svg xmlns="http://www.w3.org/2000/svg" width="32" height="32" viewBox="0 0 32 32" fill="none">
  <path d="M20 12H22.6667V14.6667H20V12ZM22.6667 6.66671H20V9.33337H22.6667V6.66671ZM14.6667 20H17.3333V17.3334H14.6667V20ZM17.3333 6.66671H14.6667V9.33337H17.3333V6.66671ZM14.6667 14.6667H17.3333V12H14.6667V14.6667ZM12 6.66671H9.33333V9.33337H12V6.66671ZM12 12H9.33333V14.6667H12V12ZM19.4 28H17.3333V23.3334H14.6667V28H6.66667V4.00004H25.3333V14.7067C26.28 14.7867 27.1867 15.08 28 15.5067V1.33337H4V30.6667H21.2133C20.6667 29.92 20 29.0134 19.4 28ZM9.33333 25.3334H12V22.6667H9.33333V25.3334ZM12 17.3334H9.33333V20H12V17.3334ZM29.3333 22C29.3333 25.4667 24.6667 30.6667 24.6667 30.6667C24.6667 30.6667 20 25.4667 20 22C20 19.4667 22.1333 17.3334 24.6667 17.3334C27.2 17.3334 29.3333 19.4667 29.3333 22ZM26.2667 22.1334C26.2667 21.3334 25.4667 20.5334 24.6667 20.5334C23.8667 20.5334 23.0667 21.2 23.0667 22.1334C23.0667 22.9334 23.7333 23.7334 24.6667 23.7334C25.6 23.7334 26.4 22.9334 26.2667 22.1334Z" fill="#E086D3"/>
</svg>