<svg xmlns="http://www.w3.org/2000/svg" width="32" height="32" viewBox="0 0 32 32" fill="none">
  <mask id="mask0_2642_4417" style="mask-type:alpha" maskUnits="userSpaceOnUse" x="0" y="0" width="32" height="32">
    <rect width="32" height="32" fill="#D9D9D9"/>
  </mask>
  <g mask="url(#mask0_2642_4417)">
    <path d="M19.4998 21.3666C19.7443 21.6111 20.0443 21.7333 20.3998 21.7333C20.7554 21.7333 21.0665 21.6 21.3332 21.3333C21.5776 21.0888 21.6998 20.7777 21.6998 20.4C21.6998 20.0222 21.5776 19.7111 21.3332 19.4666L17.3332 15.4666V10.6333C17.3332 10.2555 17.2056 9.9444 16.9505 9.69996C16.6945 9.45551 16.3776 9.33329 15.9998 9.33329C15.6221 9.33329 15.3056 9.46085 15.0505 9.71596C14.7945 9.97196 14.6665 10.2888 14.6665 10.6666V15.9666C14.6665 16.1444 14.6998 16.3164 14.7665 16.4826C14.8332 16.6497 14.9332 16.8 15.0665 16.9333L19.4998 21.3666ZM15.9998 29.3333C14.1554 29.3333 12.4221 28.9831 10.7998 28.2826C9.17762 27.5831 7.7665 26.6333 6.5665 25.4333C5.3665 24.2333 4.41673 22.8222 3.71717 21.2C3.01673 19.5777 2.6665 17.8444 2.6665 16C2.6665 14.1555 3.01673 12.4222 3.71717 10.8C4.41673 9.17774 5.3665 7.76663 6.5665 6.56663C7.7665 5.36663 9.17762 4.4164 10.7998 3.71596C12.4221 3.0164 14.1554 2.66663 15.9998 2.66663C17.8443 2.66663 19.5776 3.0164 21.1998 3.71596C22.8221 4.4164 24.2332 5.36663 25.4332 6.56663C26.6332 7.76663 27.5829 9.17774 28.2825 10.8C28.9829 12.4222 29.3332 14.1555 29.3332 16C29.3332 17.8444 28.9829 19.5777 28.2825 21.2C27.5829 22.8222 26.6332 24.2333 25.4332 25.4333C24.2332 26.6333 22.8221 27.5831 21.1998 28.2826C19.5776 28.9831 17.8443 29.3333 15.9998 29.3333ZM15.9998 26.6666C18.9554 26.6666 21.4723 25.628 23.5505 23.5506C25.6278 21.4724 26.6665 18.9555 26.6665 16C26.6665 13.0444 25.6278 10.5275 23.5505 8.44929C21.4723 6.37196 18.9554 5.33329 15.9998 5.33329C13.0443 5.33329 10.5278 6.37196 8.4505 8.44929C6.37228 10.5275 5.33317 13.0444 5.33317 16C5.33317 18.9555 6.37228 21.4724 8.4505 23.5506C10.5278 25.628 13.0443 26.6666 15.9998 26.6666Z" fill="#E086D3"/>
  </g>
</svg>