<svg width="68" height="58" viewBox="0 0 68 58" fill="none" xmlns="http://www.w3.org/2000/svg">
<g id="decrease">
<g id="Rectangle 321">
<path d="M1 5C1 2.79086 2.79086 1 5 1H63C65.2091 1 67 2.79086 67 5V53C67 55.2091 65.2091 57 63 57H20.6569C19.596 57 18.5786 56.5786 17.8284 55.8284L2.17157 40.1716C1.42143 39.4214 1 38.404 1 37.3431V5Z" fill="#030A17" fill-opacity="0.8"/>
<path d="M1 5C1 2.79086 2.79086 1 5 1H63C65.2091 1 67 2.79086 67 5V53C67 55.2091 65.2091 57 63 57H20.6569C19.596 57 18.5786 56.5786 17.8284 55.8284L2.17157 40.1716C1.42143 39.4214 1 38.404 1 37.3431V5Z" fill="#00E0FF" fill-opacity="0.1"/>
<path d="M1 5C1 2.79086 2.79086 1 5 1H63C65.2091 1 67 2.79086 67 5V53C67 55.2091 65.2091 57 63 57H20.6569C19.596 57 18.5786 56.5786 17.8284 55.8284L2.17157 40.1716C1.42143 39.4214 1 38.404 1 37.3431V5Z" stroke="#00E0FF" stroke-width="2"/>
</g>
<g id="remove">
<mask id="mask0_3225_3761" style="mask-type:alpha" maskUnits="userSpaceOnUse" x="18" y="13" width="32" height="32">
<rect id="Bounding box" x="18" y="13" width="32" height="32" fill="#D9D9D9"/>
</mask>
<g mask="url(#mask0_3225_3761)">
<path id="remove_2" d="M26.3333 29.9999C26.0499 29.9999 25.8124 29.9041 25.6208 29.7123C25.4291 29.5206 25.3333 29.283 25.3333 28.9995C25.3333 28.7161 25.4291 28.4786 25.6208 28.2872C25.8124 28.0957 26.0499 28 26.3333 28H41.6665C41.9499 28 42.1874 28.0959 42.379 28.2876C42.5707 28.4794 42.6665 28.717 42.6665 29.0004C42.6665 29.2839 42.5707 29.5213 42.379 29.7128C42.1874 29.9042 41.9499 29.9999 41.6665 29.9999H26.3333Z" fill="#FFFBFF"/>
</g>
</g>
</g>
</svg>
