<svg width="68" height="58" viewBox="0 0 68 58" fill="none" xmlns="http://www.w3.org/2000/svg">
<g id="increase">
<g id="Rectangle 322">
<path d="M1 5C1 2.79086 2.79086 1 5 1H63C65.2091 1 67 2.79086 67 5V37.3431C67 38.404 66.5786 39.4214 65.8284 40.1716L50.1716 55.8284C49.4214 56.5786 48.404 57 47.3431 57H5C2.79086 57 1 55.2091 1 53V38.3333V5Z" fill="#030A17" fill-opacity="0.8"/>
<path d="M1 5C1 2.79086 2.79086 1 5 1H63C65.2091 1 67 2.79086 67 5V37.3431C67 38.404 66.5786 39.4214 65.8284 40.1716L50.1716 55.8284C49.4214 56.5786 48.404 57 47.3431 57H5C2.79086 57 1 55.2091 1 53V38.3333V5Z" fill="#00E0FF" fill-opacity="0.1"/>
<path d="M1 5C1 2.79086 2.79086 1 5 1H63C65.2091 1 67 2.79086 67 5V37.3431C67 38.404 66.5786 39.4214 65.8284 40.1716L50.1716 55.8284C49.4214 56.5786 48.404 57 47.3431 57H5C2.79086 57 1 55.2091 1 53V38.3333V5Z" stroke="#00E0FF" stroke-width="2"/>
</g>
<g id="add">
<mask id="mask0_3225_3749" style="mask-type:alpha" maskUnits="userSpaceOnUse" x="18" y="13" width="32" height="32">
<rect id="Bounding box" x="18" y="13" width="32" height="32" fill="#D9D9D9"/>
</mask>
<g mask="url(#mask0_3225_3749)">
<path id="add_2" d="M32.9999 30.0001H26.3333C26.0499 30.0001 25.8124 29.9042 25.6208 29.7125C25.4291 29.5207 25.3333 29.2831 25.3333 28.9997C25.3333 28.7162 25.4291 28.4788 25.6208 28.2873C25.8124 28.0959 26.0499 28.0002 26.3333 28.0002H32.9999V21.3335C32.9999 21.0502 33.0958 20.8127 33.2875 20.621C33.4793 20.4293 33.7169 20.3335 34.0003 20.3335C34.2838 20.3335 34.5212 20.4293 34.7127 20.621C34.9041 20.8127 34.9999 21.0502 34.9999 21.3335V28.0002H41.6665C41.9499 28.0002 42.1874 28.096 42.379 28.2878C42.5707 28.4795 42.6665 28.7171 42.6665 29.0006C42.6665 29.284 42.5707 29.5215 42.379 29.7129C42.1874 29.9044 41.9499 30.0001 41.6665 30.0001H34.9999V36.6668C34.9999 36.9501 34.904 37.1876 34.7123 37.3793C34.5205 37.5709 34.2829 37.6668 33.9995 37.6668C33.716 37.6668 33.4785 37.5709 33.2871 37.3793C33.0956 37.1876 32.9999 36.9501 32.9999 36.6668V30.0001Z" fill="#FFFBFF"/>
</g>
</g>
</g>
</svg>
