<svg width="68" height="58" viewBox="0 0 68 58" fill="none" xmlns="http://www.w3.org/2000/svg">
<g id="Rectangle 322">
<path d="M1 5C1 2.79086 2.79086 1 5 1H63C65.2091 1 67 2.79086 67 5V43.3431C67 44.404 66.5786 45.4214 65.8284 46.1716L56.1716 55.8284C55.4214 56.5786 54.404 57 53.3431 57H5C2.79086 57 1 55.2091 1 53V38.3333V5Z" fill="#030A17" fill-opacity="0.8"/>
<path d="M1 5C1 2.79086 2.79086 1 5 1H63C65.2091 1 67 2.79086 67 5V43.3431C67 44.404 66.5786 45.4214 65.8284 46.1716L56.1716 55.8284C55.4214 56.5786 54.404 57 53.3431 57H5C2.79086 57 1 55.2091 1 53V38.3333V5Z" fill="#00E0FF" fill-opacity="0.3"/>
<path d="M1 5C1 2.79086 2.79086 1 5 1H63C65.2091 1 67 2.79086 67 5V43.3431C67 44.404 66.5786 45.4214 65.8284 46.1716L56.1716 55.8284C55.4214 56.5786 54.404 57 53.3431 57H5C2.79086 57 1 55.2091 1 53V38.3333V5Z" stroke="#00E0FF" stroke-width="2"/>
</g>
</svg>
