<svg width="48" height="48" viewBox="0 0 48 48" fill="none" xmlns="http://www.w3.org/2000/svg">
<g id="add">
<mask id="mask0_3225_3863" style="mask-type:alpha" maskUnits="userSpaceOnUse" x="0" y="0" width="48" height="48">
<rect id="Bounding box" width="48" height="48" fill="#D9D9D9"/>
</mask>
<g mask="url(#mask0_3225_3863)">
<path id="add_2" d="M22.5 25.5004H12.5C12.075 25.5004 11.7188 25.3566 11.4313 25.069C11.1438 24.7814 11 24.425 11 23.9998C11 23.5746 11.1438 23.2184 11.4313 22.9312C11.7188 22.6441 12.075 22.5005 12.5 22.5005H22.5V12.5005C22.5 12.0755 22.6438 11.7192 22.9314 11.4317C23.219 11.1442 23.5754 11.0005 24.0006 11.0005C24.4258 11.0005 24.782 11.1442 25.0691 11.4317C25.3563 11.7192 25.4999 12.0755 25.4999 12.5005V22.5005H35.4999C35.9249 22.5005 36.2812 22.6443 36.5687 22.9319C36.8562 23.2195 36.9999 23.5759 36.9999 24.0011C36.9999 24.4263 36.8562 24.7825 36.5687 25.0696C36.2812 25.3568 35.9249 25.5004 35.4999 25.5004H25.4999V35.5004C25.4999 35.9254 25.3561 36.2816 25.0685 36.5691C24.7809 36.8566 24.4245 37.0004 23.9993 37.0004C23.5741 37.0004 23.2179 36.8566 22.9307 36.5691C22.6436 36.2816 22.5 35.9254 22.5 35.5004V25.5004Z" fill="#00E0FF"/>
</g>
</g>
</svg>
