<svg xmlns="http://www.w3.org/2000/svg" width="1195" height="97" viewBox="0 0 1195 97" fill="none">
  <path d="M1190 1H5C2.79086 1 1 2.79086 1 5V44V92C1 94.2091 2.79086 96 5 96H1168.34C1169.4 96 1170.42 95.5786 1171.17 94.8284L1192.83 73.1716C1193.58 72.4214 1194 71.404 1194 70.3431V5C1194 2.79086 1192.21 1 1190 1Z" fill="#030A17" fill-opacity="0.8"/>
  <path d="M1190 1H5C2.79086 1 1 2.79086 1 5V44V92C1 94.2091 2.79086 96 5 96H1168.34C1169.4 96 1170.42 95.5786 1171.17 94.8284L1192.83 73.1716C1193.58 72.4214 1194 71.404 1194 70.3431V5C1194 2.79086 1192.21 1 1190 1Z" fill="#802392" fill-opacity="0.1"/>
  <path d="M1190 1H5C2.79086 1 1 2.79086 1 5V44V92C1 94.2091 2.79086 96 5 96H1168.34C1169.4 96 1170.42 95.5786 1171.17 94.8284L1192.83 73.1716C1193.58 72.4214 1194 71.404 1194 70.3431V5C1194 2.79086 1192.21 1 1190 1Z" stroke="#E086D3" stroke-opacity="0.3" stroke-width="2"/>
</svg>