<svg width="101" height="97" viewBox="0 0 101 97" fill="none" xmlns="http://www.w3.org/2000/svg">
<g id="Vector 44">
<path d="M96 1H5C2.79086 1 1 2.79086 1 5V42.4876C1 43.4622 1.35583 44.4033 2.00065 45.1341L7.49935 51.3659C8.14417 52.0967 8.5 53.0378 8.5 54.0124V71.6114C8.5 72.5108 8.19686 73.384 7.63953 74.0899L1.86047 81.4101C1.30314 82.116 1 82.9892 1 83.8886V92C1 94.2091 2.79086 96 5 96H96C98.2091 96 100 94.2091 100 92V5C100 2.79086 98.2091 1 96 1Z" fill="#030A17" fill-opacity="0.8"/>
<path d="M96 1H5C2.79086 1 1 2.79086 1 5V42.4876C1 43.4622 1.35583 44.4033 2.00065 45.1341L7.49935 51.3659C8.14417 52.0967 8.5 53.0378 8.5 54.0124V71.6114C8.5 72.5108 8.19686 73.384 7.63953 74.0899L1.86047 81.4101C1.30314 82.116 1 82.9892 1 83.8886V92C1 94.2091 2.79086 96 5 96H96C98.2091 96 100 94.2091 100 92V5C100 2.79086 98.2091 1 96 1Z" fill="#802392" fill-opacity="0.1"/>
<path d="M96 1H5C2.79086 1 1 2.79086 1 5V42.4876C1 43.4622 1.35583 44.4033 2.00065 45.1341L7.49935 51.3659C8.14417 52.0967 8.5 53.0378 8.5 54.0124V71.6114C8.5 72.5108 8.19686 73.384 7.63953 74.0899L1.86047 81.4101C1.30314 82.116 1 82.9892 1 83.8886V92C1 94.2091 2.79086 96 5 96H96C98.2091 96 100 94.2091 100 92V5C100 2.79086 98.2091 1 96 1Z" stroke="#E086D3" stroke-opacity="0.3" stroke-width="2"/>
</g>
</svg>
