<svg width="32" height="32" viewBox="0 0 32 32" fill="none" xmlns="http://www.w3.org/2000/svg">
<mask id="mask0_2424_2700" style="mask-type:alpha" maskUnits="userSpaceOnUse" x="0" y="0" width="32" height="32">
<rect width="32" height="32" fill="#D9D9D9"/>
</mask>
<g mask="url(#mask0_2424_2700)">
<path d="M5.33333 25.3333C4.95556 25.3333 4.63889 25.2056 4.38333 24.95C4.12778 24.6944 4 24.3778 4 24C4 23.6222 4.12778 23.3056 4.38333 23.05C4.63889 22.7944 4.95556 22.6667 5.33333 22.6667H10.6667C11.0444 22.6667 11.3611 22.7944 11.6167 23.05C11.8722 23.3056 12 23.6222 12 24C12 24.3778 11.8722 24.6944 11.6167 24.95C11.3611 25.2056 11.0444 25.3333 10.6667 25.3333H5.33333ZM5.33333 9.33333C4.95556 9.33333 4.63889 9.20556 4.38333 8.95C4.12778 8.69444 4 8.37778 4 8C4 7.62222 4.12778 7.30556 4.38333 7.05C4.63889 6.79444 4.95556 6.66667 5.33333 6.66667H16C16.3778 6.66667 16.6944 6.79444 16.95 7.05C17.2056 7.30556 17.3333 7.62222 17.3333 8C17.3333 8.37778 17.2056 8.69444 16.95 8.95C16.6944 9.20556 16.3778 9.33333 16 9.33333H5.33333ZM16 28C15.6222 28 15.3056 27.8722 15.05 27.6167C14.7944 27.3611 14.6667 27.0444 14.6667 26.6667V21.3333C14.6667 20.9556 14.7944 20.6389 15.05 20.3833C15.3056 20.1278 15.6222 20 16 20C16.3778 20 16.6944 20.1278 16.95 20.3833C17.2056 20.6389 17.3333 20.9556 17.3333 21.3333V22.6667H26.6667C27.0444 22.6667 27.3611 22.7944 27.6167 23.05C27.8722 23.3056 28 23.6222 28 24C28 24.3778 27.8722 24.6944 27.6167 24.95C27.3611 25.2056 27.0444 25.3333 26.6667 25.3333H17.3333V26.6667C17.3333 27.0444 17.2056 27.3611 16.95 27.6167C16.6944 27.8722 16.3778 28 16 28ZM10.6667 20C10.2889 20 9.97222 19.8722 9.71667 19.6167C9.46111 19.3611 9.33333 19.0444 9.33333 18.6667V17.3333H5.33333C4.95556 17.3333 4.63889 17.2056 4.38333 16.95C4.12778 16.6944 4 16.3778 4 16C4 15.6222 4.12778 15.3056 4.38333 15.05C4.63889 14.7944 4.95556 14.6667 5.33333 14.6667H9.33333V13.3333C9.33333 12.9556 9.46111 12.6389 9.71667 12.3833C9.97222 12.1278 10.2889 12 10.6667 12C11.0444 12 11.3611 12.1278 11.6167 12.3833C11.8722 12.6389 12 12.9556 12 13.3333V18.6667C12 19.0444 11.8722 19.3611 11.6167 19.6167C11.3611 19.8722 11.0444 20 10.6667 20ZM16 17.3333C15.6222 17.3333 15.3056 17.2056 15.05 16.95C14.7944 16.6944 14.6667 16.3778 14.6667 16C14.6667 15.6222 14.7944 15.3056 15.05 15.05C15.3056 14.7944 15.6222 14.6667 16 14.6667H26.6667C27.0444 14.6667 27.3611 14.7944 27.6167 15.05C27.8722 15.3056 28 15.6222 28 16C28 16.3778 27.8722 16.6944 27.6167 16.95C27.3611 17.2056 27.0444 17.3333 26.6667 17.3333H16ZM21.3333 12C20.9556 12 20.6389 11.8722 20.3833 11.6167C20.1278 11.3611 20 11.0444 20 10.6667V5.33333C20 4.95556 20.1278 4.63889 20.3833 4.38333C20.6389 4.12778 20.9556 4 21.3333 4C21.7111 4 22.0278 4.12778 22.2833 4.38333C22.5389 4.63889 22.6667 4.95556 22.6667 5.33333V6.66667H26.6667C27.0444 6.66667 27.3611 6.79444 27.6167 7.05C27.8722 7.30556 28 7.62222 28 8C28 8.37778 27.8722 8.69444 27.6167 8.95C27.3611 9.20556 27.0444 9.33333 26.6667 9.33333H22.6667V10.6667C22.6667 11.0444 22.5389 11.3611 22.2833 11.6167C22.0278 11.8722 21.7111 12 21.3333 12Z" fill="black"/>
</g>
</svg>
