<svg width="32" height="32" viewBox="0 0 32 32" fill="none" xmlns="http://www.w3.org/2000/svg">
<g id="arrow_right">
<mask id="mask0_2415_3104" style="mask-type:alpha" maskUnits="userSpaceOnUse" x="0" y="0" width="32" height="32">
<rect id="Bounding box" x="32" width="32" height="32" transform="rotate(90 32 0)" fill="#D9D9D9"/>
</mask>
<g mask="url(#mask0_2415_3104)">
<path id="arrow_right_2" d="M10 12.8807C10 12.6435 10.0659 12.4374 10.1978 12.2624C10.3296 12.0875 10.5033 12 10.719 12L21.281 12C21.4967 12 21.6704 12.0883 21.8022 12.265C21.9341 12.4416 22 12.6477 22 12.8833C22 12.9422 21.9255 13.1466 21.7766 13.4965L16.7634 19.5961C16.6481 19.7363 16.529 19.8387 16.406 19.9032C16.283 19.9677 16.1476 20 16 20C15.8524 20 15.717 19.9677 15.594 19.9032C15.471 19.8387 15.3519 19.7363 15.2366 19.596L10.2231 13.4961C10.1539 13.412 10.0994 13.318 10.0597 13.2143C10.0199 13.1105 10 12.9993 10 12.8807Z" fill="#FB932E"/>
</g>
</g>
</svg>
