<svg width="24" height="25" viewBox="0 0 24 25" fill="none" xmlns="http://www.w3.org/2000/svg">
<g id="arrow_forward">
<mask id="mask0_3006_1781" style="mask-type:alpha" maskUnits="userSpaceOnUse" x="0" y="0" width="24" height="25">
<rect id="Bounding box" y="0.5" width="24" height="24" fill="#D9D9D9"/>
</mask>
<g mask="url(#mask0_3006_1781)">
<path id="arrow_forward_2" d="M16.6269 13.25H5.25C5.03718 13.25 4.85898 13.1782 4.7154 13.0347C4.5718 12.8911 4.5 12.7129 4.5 12.5001C4.5 12.2872 4.5718 12.109 4.7154 11.9655C4.85898 11.8219 5.03718 11.7501 5.25 11.7501H16.6269L11.4577 6.58083C11.309 6.43211 11.2356 6.25808 11.2375 6.05873C11.2394 5.85936 11.3179 5.68212 11.4731 5.527C11.6282 5.38214 11.8038 5.30714 12 5.302C12.1961 5.29687 12.3718 5.37187 12.5269 5.527L18.8672 11.8674C18.9608 11.961 19.0269 12.0597 19.0653 12.1635C19.1038 12.2674 19.123 12.3795 19.123 12.5001C19.123 12.6206 19.1038 12.7327 19.0653 12.8366C19.0269 12.9404 18.9608 13.0391 18.8672 13.1327L12.5269 19.4731C12.3884 19.6116 12.217 19.6824 12.0125 19.6856C11.808 19.6888 11.6282 19.618 11.4731 19.4731C11.3179 19.318 11.2404 19.1398 11.2404 18.9385C11.2404 18.7372 11.3179 18.559 11.4731 18.4039L16.6269 13.25Z" fill="white"/>
</g>
</g>
</svg>
