<svg width="24" height="25" viewBox="0 0 24 25" fill="none" xmlns="http://www.w3.org/2000/svg">
<g id="arrow_forward">
<mask id="mask0_3006_1663" style="mask-type:alpha" maskUnits="userSpaceOnUse" x="0" y="0" width="24" height="25">
<rect id="Bounding box" x="24" y="0.5" width="24" height="24" transform="rotate(90 24 0.5)" fill="#D9D9D9"/>
</mask>
<g mask="url(#mask0_3006_1663)">
<path id="arrow_forward_2" d="M11.25 17.1269L11.25 5.75C11.25 5.53718 11.3218 5.35898 11.4653 5.2154C11.6089 5.0718 11.7871 5 11.9999 5C12.2128 5 12.391 5.0718 12.5345 5.2154C12.6781 5.35898 12.7499 5.53718 12.7499 5.75L12.7499 17.1269L17.9192 11.9577C18.0679 11.809 18.2419 11.7356 18.4413 11.7375C18.6406 11.7394 18.8179 11.8179 18.973 11.9731C19.1179 12.1282 19.1929 12.3038 19.198 12.5C19.2031 12.6961 19.1281 12.8718 18.973 13.0269L12.6326 19.3672C12.539 19.4608 12.4403 19.5269 12.3365 19.5653C12.2326 19.6038 12.1205 19.623 11.9999 19.623C11.8794 19.623 11.7673 19.6038 11.6634 19.5653C11.5596 19.5269 11.4609 19.4608 11.3673 19.3672L5.02689 13.0269C4.88843 12.8884 4.81759 12.717 4.81439 12.5125C4.8112 12.308 4.88203 12.1282 5.02689 11.9731C5.18201 11.8179 5.36021 11.7404 5.5615 11.7404C5.76278 11.7404 5.94098 11.8179 6.09609 11.9731L11.25 17.1269Z" fill="white"/>
</g>
</g>
</svg>
