<svg width="24" height="25" viewBox="0 0 24 25" fill="none" xmlns="http://www.w3.org/2000/svg">
<g id="description">
<mask id="mask0_2329_1005" style="mask-type:alpha" maskUnits="userSpaceOnUse" x="0" y="0" width="24" height="25">
<rect id="Bounding box" y="0.5" width="24" height="24" fill="#D9D9D9"/>
</mask>
<g mask="url(#mask0_2329_1005)">
<path id="description_2" d="M8 18.5H16V16.5H8V18.5ZM8 14.5H16V12.5H8V14.5ZM6 22.5C5.45 22.5 4.97933 22.3043 4.588 21.913C4.196 21.521 4 21.05 4 20.5V4.5C4 3.95 4.196 3.479 4.588 3.087C4.97933 2.69567 5.45 2.5 6 2.5H14L20 8.5V20.5C20 21.05 19.8043 21.521 19.413 21.913C19.021 22.3043 18.55 22.5 18 22.5H6ZM13 9.5V4.5H6V20.5H18V9.5H13Z" fill="#FFFBFF"/>
</g>
</g>
</svg>
