<svg width="40" height="40" viewBox="0 0 40 40" fill="none" xmlns="http://www.w3.org/2000/svg">
<g id="search">
<mask id="mask0_2859_1408" style="mask-type:alpha" maskUnits="userSpaceOnUse" x="0" y="0" width="40" height="40">
<rect id="Bounding box" width="40" height="40" fill="#D9D9D9"/>
</mask>
<g mask="url(#mask0_2859_1408)">
<path id="search_2" d="M15.8651 26.0257C13.019 26.0257 10.6087 25.0386 8.63439 23.0642C6.66003 21.0899 5.67285 18.6796 5.67285 15.8335C5.67285 12.9873 6.66003 10.5771 8.63439 8.60273C10.6087 6.6284 13.019 5.64124 15.8651 5.64124C18.7112 5.64124 21.1215 6.6284 23.0959 8.60273C25.0702 10.5771 26.0574 12.9873 26.0574 15.8335C26.0574 17.0237 25.8576 18.1604 25.458 19.2437C25.0584 20.3271 24.5253 21.2694 23.8586 22.0707L33.4484 31.6604C33.6792 31.8912 33.7972 32.1813 33.8026 32.5306C33.8079 32.8799 33.6899 33.1753 33.4484 33.4168C33.207 33.6582 32.9142 33.7789 32.5702 33.7789C32.2262 33.7789 31.9335 33.6582 31.6921 33.4168L22.1023 23.827C21.2689 24.5151 20.3106 25.0535 19.2273 25.4424C18.1439 25.8313 17.0232 26.0257 15.8651 26.0257ZM15.8651 23.5258C18.0125 23.5258 19.8315 22.7806 21.3219 21.2902C22.8122 19.7998 23.5574 17.9809 23.5574 15.8335C23.5574 13.686 22.8122 11.8671 21.3219 10.3767C19.8315 8.88635 18.0125 8.14115 15.8651 8.14115C13.7177 8.14115 11.8987 8.88635 10.4084 10.3767C8.91799 11.8671 8.17281 13.686 8.17281 15.8335C8.17281 17.9809 8.91799 19.7998 10.4084 21.2902C11.8987 22.7806 13.7177 23.5258 15.8651 23.5258Z" fill="#00E0FF"/>
</g>
</g>
</svg>
